<?xml version="1.0" standalone="no"?>
<!DOCTYPE svg PUBLIC "-//W3C//DTD SVG 20010904//EN"
 "http://www.w3.org/TR/2001/REC-SVG-20010904/DTD/svg10.dtd">
<svg version="1.0" xmlns="http://www.w3.org/2000/svg"
 width="724.000000pt" height="724.000000pt" viewBox="0 0 724.000000 724.000000"
 preserveAspectRatio="xMidYMid meet">
<metadata>
Created by potrace 1.14, written by Peter Selinger 2001-2017
</metadata>
<g transform="translate(0.000000,724.000000) scale(0.100000,-0.100000)"
fill="#000000" stroke="none">
<path d="M56 4619 c-40 -31 -56 -71 -56 -137 l0 -60 37 19 c23 12 48 17 63 14
42 -10 80 -27 80 -36 0 -5 -13 -3 -30 6 -68 35 -140 9 -140 -51 0 -46 52 -179
91 -232 43 -58 63 -55 88 14 33 86 50 114 70 114 38 0 30 29 -21 85 -28 31
-48 58 -46 61 3 2 26 -18 52 -46 48 -52 73 -98 110 -205 31 -89 75 -85 112 11
52 136 -41 335 -200 429 -51 30 -69 35 -122 35 -47 0 -67 -5 -88 -21z"/>
<path d="M335 4621 c-22 -11 -34 -20 -26 -20 24 -2 122 -114 151 -176 16 -33
32 -84 36 -114 9 -66 17 -54 40 61 28 133 5 216 -68 254 -37 19 -85 17 -133
-5z"/>
<path d="M750 4370 l-28 -28 0 -643 0 -642 28 -29 28 -28 399 4 c318 3 412 7
468 20 39 9 81 19 95 22 14 3 27 9 28 15 2 5 7 7 12 4 8 -5 100 32 110 44 3 3
18 13 33 21 41 21 133 123 162 179 60 119 79 213 79 391 0 118 -7 185 -25 254
-15 56 -70 176 -80 176 -5 0 -9 6 -9 13 0 7 -25 37 -55 67 -30 30 -55 51 -55
47 0 -4 -12 4 -27 18 -16 14 -35 23 -43 20 -8 -4 -11 -3 -7 1 8 9 -30 26 -118
55 -119 38 -229 47 -607 47 l-361 0 -27 -28z m768 -260 c154 -28 217 -83 262
-231 23 -74 20 -299 -4 -376 -37 -117 -105 -178 -231 -209 -69 -16 -425 -27
-447 -13 -10 6 -14 820 -5 836 8 12 353 6 425 -7z"/>
<path d="M4993 4385 c-17 -13 -18 -42 -17 -527 0 -282 2 -524 4 -538 21 -182
128 -298 302 -330 66 -13 308 -6 364 9 23 6 47 18 54 26 15 18 19 149 5 168
-24 33 -49 36 -174 23 -76 -7 -130 7 -165 43 -49 52 -54 84 -56 311 l-1 211
138 -2 c159 -1 193 7 194 48 5 130 -2 170 -31 181 -10 4 -82 7 -160 7 l-140
-1 0 178 c0 173 -1 178 -22 192 -31 20 -268 20 -295 1z"/>
<path d="M5810 4380 c-13 -25 -13 -50 2 -50 6 0 9 -3 5 -6 -6 -6 168 -230 213
-273 14 -14 24 -26 22 -28 -2 -2 8 -18 22 -36 14 -18 50 -65 81 -104 31 -40
61 -73 67 -73 6 0 9 -3 5 -6 -3 -3 2 -15 12 -25 29 -31 46 -69 35 -77 -5 -4
-25 -27 -44 -52 -19 -25 -40 -51 -47 -58 -7 -8 -10 -19 -6 -25 3 -7 3 -9 -2
-5 -7 7 -63 -52 -57 -60 2 -3 -1 -8 -6 -11 -21 -13 -121 -145 -116 -153 3 -5
1 -7 -4 -6 -12 4 -93 -98 -85 -106 4 -3 2 -6 -4 -6 -5 0 -32 -28 -59 -62 -78
-98 -85 -115 -60 -141 21 -21 277 -21 326 -1 40 17 112 83 104 96 -3 4 -1 8 4
8 9 0 112 125 112 136 0 4 6 12 13 18 8 6 47 53 87 104 l73 92 22 -22 c12 -13
21 -25 21 -28 -1 -5 67 -93 84 -110 3 -3 27 -34 55 -70 27 -36 52 -67 55 -70
3 -3 20 -25 39 -50 37 -48 90 -97 99 -92 2 2 8 -2 13 -10 11 -17 306 -23 326
-7 26 22 12 58 -59 151 -40 51 -78 100 -85 108 -7 8 -40 51 -75 95 -34 44 -66
85 -70 90 -92 111 -198 254 -198 267 0 9 5 20 10 23 6 4 7 12 4 18 -4 7 -4 9
1 5 4 -4 28 18 52 50 25 31 57 72 71 91 15 18 26 38 24 43 -1 5 1 7 6 4 12 -7
74 79 64 89 -4 3 -2 5 4 3 10 -3 46 39 149 172 27 36 57 73 66 83 9 10 19 29
21 42 9 47 -1 50 -160 51 -191 2 -208 -5 -300 -126 -15 -19 -29 -37 -32 -40
-24 -23 -190 -240 -190 -249 0 -28 -26 -2 -122 121 -157 200 -201 251 -238
273 -31 17 -54 20 -187 22 -140 2 -154 0 -163 -17z"/>
<path d="M2721 4079 c-63 -12 -171 -49 -171 -59 0 -4 -11 -11 -25 -14 -42 -11
-143 -120 -176 -190 -55 -118 -71 -274 -45 -438 15 -91 72 -195 144 -260 103
-93 209 -128 402 -133 338 -8 525 78 540 250 7 74 -7 83 -132 83 -119 0 -134
-5 -184 -52 -50 -48 -92 -60 -194 -60 -68 1 -95 6 -136 25 -28 13 -51 26 -51
29 0 3 -7 18 -18 33 -10 15 -24 52 -31 82 l-12 55 31 1 c18 0 187 0 377 0 279
0 349 3 367 14 19 13 21 23 21 105 0 231 -87 389 -263 475 -38 19 -100 41
-137 49 -76 15 -240 18 -307 5z m255 -234 c23 -10 51 -33 64 -52 21 -31 54
-142 45 -152 -4 -3 -356 -5 -431 -2 -19 1 -21 6 -17 39 12 90 66 159 143 180
52 14 149 7 196 -13z"/>
<path d="M4220 4081 c-8 -6 -18 -8 -22 -5 -10 6 -138 -44 -159 -62 -8 -8 -19
-14 -24 -14 -5 0 -22 -12 -37 -27 -27 -26 -28 -26 -29 -5 -1 12 -2 31 -3 42 0
10 -9 28 -18 40 -16 18 -29 20 -151 20 -121 0 -136 -2 -152 -20 -16 -18 -18
-53 -18 -515 0 -449 2 -497 17 -514 15 -16 33 -19 149 -19 100 0 137 4 152 14
19 14 20 29 22 357 1 188 2 344 3 347 1 3 2 8 1 13 0 4 3 6 8 5 5 -2 22 9 39
24 105 92 259 116 328 51 16 -15 32 -26 36 -25 5 1 7 -1 6 -6 -1 -4 4 -27 11
-52 10 -32 14 -135 14 -368 1 -292 2 -324 18 -341 15 -16 34 -19 150 -20 110
-1 136 2 151 16 17 15 18 40 18 362 -1 303 -3 354 -19 412 -41 153 -134 244
-288 284 -63 17 -180 20 -203 6z"/>
<path d="M138 4028 c-17 -17 -18 -45 -18 -501 0 -413 2 -486 15 -504 14 -20
23 -21 149 -21 96 0 140 4 153 13 17 13 18 42 19 500 1 450 0 488 -17 508 -16
20 -26 22 -150 23 -116 1 -134 -1 -151 -18z"/>
<path d="M5358 2889 c-77 -12 -90 -35 -139 -233 -11 -44 -11 -43 16 -46 37 -4
45 0 59 33 13 33 14 33 77 31 85 -2 81 0 77 -31 -2 -22 2 -28 25 -34 47 -13
53 4 52 144 -1 70 -4 129 -8 133 -8 9 -113 11 -159 3z m89 -105 l-1 -54 -63 1
c-35 1 -63 5 -63 10 0 5 7 26 16 48 16 41 27 47 80 48 31 1 31 1 31 -53z"/>
<path d="M5600 2888 c-18 -7 -19 -18 -18 -135 0 -70 4 -133 9 -138 4 -6 45
-10 98 -8 136 3 181 32 194 124 10 76 -34 142 -103 155 -47 10 -157 11 -180 2z
m188 -71 c16 -16 23 -75 14 -109 -6 -25 -55 -46 -104 -46 l-38 0 0 89 0 89 56
-4 c33 -2 63 -11 72 -19z"/>
<path d="M5931 2880 c-4 -8 -6 -70 -6 -138 1 -132 5 -143 51 -134 23 4 24 6
25 106 l0 101 37 -99 c57 -153 97 -151 151 9 16 50 31 83 31 75 1 -8 2 -51 2
-95 0 -84 6 -103 36 -100 36 2 39 13 40 150 l0 135 -26 1 c-15 1 -36 2 -47 3
-39 2 -52 -14 -81 -98 -16 -47 -31 -82 -35 -78 -4 4 -17 39 -29 77 -12 39 -28
76 -36 84 -18 20 -104 21 -113 1z"/>
<path d="M6934 2893 c-48 -9 -59 -37 -62 -163 -3 -108 -2 -119 15 -122 10 -2
26 -2 36 0 17 4 18 11 19 95 0 20 6 37 12 38 6 1 25 2 41 3 23 1 31 6 33 24 3
20 -1 22 -42 22 -38 0 -46 3 -46 19 0 28 26 44 66 39 26 -3 38 0 45 14 16 31
-41 46 -117 31z"/>
<path d="M7094 2893 c-20 -4 -21 -9 -20 -123 1 -109 3 -121 23 -141 15 -15 36
-23 64 -25 53 -3 69 3 69 27 0 15 -7 19 -35 19 -29 0 -37 5 -45 25 -5 14 -9
40 -7 58 2 28 6 32 31 32 30 1 54 29 34 41 -6 4 -23 8 -37 9 -21 1 -26 6 -27
27 -1 32 -11 58 -21 57 -4 -1 -18 -4 -29 -6z"/>
<path d="M6372 2818 c-26 -13 -39 -54 -25 -77 13 -21 47 -38 101 -51 56 -14
58 -40 3 -40 -22 0 -43 5 -46 10 -10 16 -65 12 -65 -4 0 -21 28 -46 53 -48 12
0 36 -2 52 -4 17 -1 46 2 66 7 75 19 66 98 -14 120 -61 16 -87 27 -87 38 0 15
49 19 76 5 54 -28 87 -12 55 27 -15 19 -30 23 -82 26 -35 1 -74 -2 -87 -9z"/>
<path d="M6646 2815 c-43 -23 -55 -44 -56 -97 0 -69 36 -108 106 -113 56 -4
102 13 123 46 18 30 16 102 -4 132 -29 45 -114 61 -169 32z m110 -59 c10 -29
6 -77 -8 -93 -17 -21 -66 -16 -78 7 -19 35 -8 93 18 106 31 15 60 7 68 -20z"/>
</g>
</svg>
